<svg width="24" height="24" viewBox="0 0 24 24" fill="none" xmlns="http://www.w3.org/2000/svg">
<path fill-rule="evenodd" clip-rule="evenodd" d="M23.4719 10.7253C24.176 11.4293 24.176 12.5707 23.4719 13.2746L13.2746 23.4719C12.5707 24.176 11.4293 24.176 10.7253 23.4719L0.527983 13.2746C-0.175993 12.5707 -0.175995 11.4293 0.527983 10.7253L2.43999 8.81331L10.7253 17.0986C11.4293 17.8026 12.5707 17.8026 13.2746 17.0986L17.0986 13.2746C17.8026 12.5707 17.8026 11.4293 17.0986 10.7253L8.81331 2.43999L10.7253 0.527984C11.4293 -0.175994 12.5707 -0.175995 13.2746 0.527984L23.4719 10.7253Z" fill="#5456A7"/>
<path fill-rule="evenodd" clip-rule="evenodd" d="M0.527983 10.7253C-0.175995 11.4293 -0.175993 12.5707 0.527983 13.2746L10.7253 23.4719C11.4293 24.176 12.5707 24.176 13.2746 23.4719L15.1866 21.56L6.90131 13.2746C6.19734 12.5707 6.19734 11.4293 6.90131 10.7253L15.1866 2.43999L13.2746 0.527984C12.5707 -0.175995 11.4293 -0.175994 10.7253 0.527984L0.527983 10.7253Z" fill="#7768B9"/>
<path fill-rule="evenodd" clip-rule="evenodd" d="M13.2746 0.527984C12.5707 -0.175995 11.4293 -0.175994 10.7253 0.527984L0.527983 10.7253C-0.175995 11.4293 -0.175993 12.5707 0.527983 13.2746L2.43999 15.1866L10.7253 6.90131C11.4293 6.19734 12.5707 6.19734 13.2746 6.90131L21.56 15.1866L23.4719 13.2746C24.176 12.5707 24.176 11.4293 23.4719 10.7253L13.2746 0.527984Z" fill="#A68CDA"/>
</svg>
